<svg id="visual" viewBox="0 0 1920 1080" width="1920" height="1080" xmlns="http://www.w3.org/2000/svg" xmlns:xlink="http://www.w3.org/1999/xlink" version="1.1"><rect x="0" y="0" width="1920" height="1080" fill="#490505"></rect><defs><linearGradient id="grad1_0" x1="43.8%" y1="0%" x2="100%" y2="100%"><stop offset="14.444444444444446%" stop-color="#490505" stop-opacity="1"></stop><stop offset="85.55555555555554%" stop-color="#490505" stop-opacity="1"></stop></linearGradient></defs><defs><linearGradient id="grad2_0" x1="0%" y1="0%" x2="56.3%" y2="100%"><stop offset="14.444444444444446%" stop-color="#490505" stop-opacity="1"></stop><stop offset="85.55555555555554%" stop-color="#490505" stop-opacity="1"></stop></linearGradient></defs><g transform="translate(1920, 0)"><path d="M0 972C-86.6 861.8 -173.2 751.6 -298.5 720.6C-423.7 689.7 -587.6 738 -687.3 687.3C-787 636.6 -822.5 486.9 -859.2 355.9C-896 224.8 -934 112.4 -972 0L0 0Z" fill="#FF382F"></path></g><g transform="translate(0, 1080)"><path d="M0 -972C93.6 -883.9 187.2 -795.9 316.5 -764C445.8 -732.2 610.8 -756.6 687.3 -687.3C763.8 -618 751.7 -455.1 784.4 -324.9C817.1 -194.7 894.5 -97.4 972 0L0 0Z" fill="#FF382F"></path></g></svg>